<svg width="64" height="64" viewBox="0 0 64 64" fill="none" xmlns="http://www.w3.org/2000/svg">
<path d="M58.3323 43.0007C51.4142 56.4128 36.2575 62.3602 24.4787 56.2849C12.6997 50.2095 8.75904 34.4117 15.6769 20.9996C22.5947 7.5875 37.7514 1.63996 49.5303 7.71539C61.3093 13.7908 65.2501 29.5886 58.3323 43.0007Z" fill="#FFF5F5"/>
<path d="M33.0758 14.0073L6.55864 17.734C4.55043 18.0162 3.14631 19.8797 3.42854 21.8879L6.26088 42.0409C6.54312 44.0491 8.40643 45.4532 10.4146 45.171L26.0059 42.9798L25.4195 38.8074C24.9427 35.4147 27.315 32.2667 30.7076 31.7899C34.1002 31.3131 37.2483 33.6854 37.7251 37.078L38.2733 40.9781C39.5225 40.2469 40.2755 38.8104 40.0619 37.2905L37.2296 17.1374C36.9474 15.1293 35.084 13.725 33.0758 14.0073ZM12.9986 21.2273L27.8482 19.1403C28.3951 19.0634 28.9008 19.4445 28.9777 19.9914C29.0545 20.5383 28.6734 21.044 28.1266 21.1208L13.2769 23.2078C12.7301 23.2847 12.2243 22.9036 12.1475 22.3567C12.0706 21.8098 12.4518 21.3041 12.9986 21.2273ZM22.008 38.1335L11.2603 39.644C10.7135 39.7208 10.2078 39.3398 10.1309 38.7929C10.054 38.246 10.4352 37.7403 10.982 37.6634L21.7297 36.1529C22.2767 36.0761 22.7823 36.4571 22.8592 37.004C22.936 37.5509 22.555 38.0566 22.008 38.1335ZM33.5617 29.0101L10.2267 32.2896C9.67992 32.3665 9.17416 31.9854 9.09731 31.4385C9.02045 30.8916 9.40157 30.3859 9.9484 30.3091L33.2835 27.0295C33.8304 26.9527 34.3361 27.3337 34.4129 27.8806C34.4897 28.4275 34.1088 28.9332 33.5617 29.0101ZM32.9655 24.7673L9.63043 28.0469C9.08365 28.1237 8.57789 27.7426 8.50104 27.1958C8.42413 26.6489 8.80531 26.1432 9.35213 26.0663L32.6872 22.7868C33.2342 22.7099 33.7398 23.091 33.8166 23.6379C33.8934 24.1848 33.5125 24.6904 32.9655 24.7673Z" fill="#FFDFDF"/>
<path d="M30.9858 33.7723C28.6852 34.0957 27.0766 36.2304 27.3999 38.531C27.7232 40.8316 29.858 42.4402 32.1585 42.1169C34.4592 41.7935 36.0677 39.6589 35.7444 37.3583C35.4211 35.0577 33.2864 33.449 30.9858 33.7723Z" fill="#FFDFDF"/>
<path d="M28.0344 43.0468L28.741 48.0752C28.7924 48.4404 29.0405 48.7477 29.3867 48.8748C29.5441 48.9326 29.7102 48.9489 29.8704 48.9263C30.0625 48.8993 30.2463 48.8165 30.3963 48.6827L32.7824 46.5576L35.6618 47.9427C35.8431 48.03 36.0424 48.0589 36.2346 48.0319C36.3947 48.0094 36.5499 47.948 36.6852 47.8491C36.9831 47.6316 37.1369 47.2677 37.0856 46.9024L36.3788 41.874C35.424 43.0425 34.045 43.8694 32.4364 44.0955C30.8277 44.3216 29.2743 43.9068 28.0344 43.0468Z" fill="#FFDFDF"/>
<path d="M44.9073 34.3252L44.8093 35.2575C44.7823 35.5148 44.9692 35.7457 45.2265 35.7727L56.415 36.9486C56.672 36.9757 56.903 36.7888 56.9296 36.5314L57.0278 35.5991L44.9073 34.3252Z" fill="#FFDFDF"/>
<path d="M54.2896 26.1983C55.0864 25.5128 55.4992 24.5108 55.4213 23.4488C55.3099 21.9118 54.0859 20.6159 52.4923 20.4483C50.8803 20.279 49.4265 21.3129 49.0033 22.7742C48.7066 23.7969 48.9019 24.8628 49.5386 25.6989C49.9696 26.2652 50.08 26.9432 50.0966 27.4122C50.1315 28.3985 49.7597 29.1019 49.3332 29.6057L53.6789 30.0624C53.3664 29.4809 53.149 28.715 53.3877 27.7582C53.5019 27.3029 53.7504 26.6626 54.2896 26.1983Z" fill="#FFDFDF"/>
<path d="M57.5914 34.7153L44.5388 33.3434C44.2814 33.3164 44.0945 33.0857 44.1216 32.8283L44.1706 32.3621C44.3057 31.0768 45.4613 30.1411 46.7465 30.2761L56.0698 31.2561C57.3552 31.3912 58.2912 32.5467 58.1557 33.832L58.1066 34.2981C58.08 34.5556 57.849 34.7424 57.5914 34.7153Z" fill="#FFDFDF"/>
</svg>
