<svg width="64" height="64" viewBox="0 0 64 64" fill="none" xmlns="http://www.w3.org/2000/svg">
<path d="M58.3323 43.0007C51.4142 56.4128 36.2575 62.3602 24.4787 56.2849C12.6997 50.2095 8.75904 34.4117 15.6769 20.9996C22.5947 7.5875 37.7514 1.63996 49.5303 7.71539C61.3093 13.7908 65.2501 29.5886 58.3323 43.0007Z" fill="#FFF5F5"/>
<path d="M39.2913 32.8489C35.4691 31.7185 27.891 32.72 26.7923 32.8744C25.6935 33.0289 18.1329 34.1549 14.7704 36.2951L13.6156 28.0787C14.0794 27.273 18.3524 25.4049 25.5993 24.3864C32.8462 23.368 37.4687 23.9859 38.1365 24.6326L39.2913 32.8489ZM27.5875 38.5331C20.6085 39.5139 16.0639 38.9774 15.1412 38.3589C15.8576 37.51 20.0802 35.7413 27.0573 34.7607C34.0345 33.7801 38.581 34.3164 39.5037 34.9349C38.7872 35.7839 34.5666 37.5523 27.5875 38.5331ZM47.4082 29.0153L45.5219 29.2804L45.1243 26.4511C45.0511 25.9302 45.414 25.4486 45.9349 25.3754C46.4557 25.3022 46.9373 25.6651 47.0105 26.186L47.4082 29.0153ZM46.632 23.4925L46.0637 19.4493L49.0823 20.072C50.0638 20.2744 50.2496 21.5961 49.362 22.0614L46.632 23.4925ZM24.1184 15.0418C24.2275 14.9847 24.353 14.9671 24.4736 14.992L44.0828 19.0401L44.751 23.7953C44.1845 24.091 43.7332 24.5678 43.469 25.1497L40.3613 26.7762L40.0111 24.2845C39.4958 20.6176 26.7819 22.2967 25.3343 22.5002C23.8866 22.7037 11.2024 24.594 11.7177 28.2608L12.0678 30.7516L2.11869 28.7009C1.13691 28.4985 0.951114 27.1764 1.8391 26.7113L24.1184 15.0418Z" fill="#FFDFDF"/>
<path d="M49.2355 41.3347C49.357 41.9867 49.4046 42.6503 49.3774 43.313C48.4662 42.7954 47.3469 42.8081 46.4477 43.3463C46.4875 42.5945 46.4521 41.8405 46.3422 41.0957C46.8473 41.1475 47.3659 41.1951 47.8978 41.2384C48.3543 41.2756 48.7979 41.3067 49.2355 41.3347ZM47.7709 47.9559C46.6174 47.8619 45.7586 46.8506 45.8525 45.6971C45.9465 44.5436 46.9578 43.6848 48.1113 43.7787C49.2647 43.8727 50.1237 44.884 50.0297 46.0375C49.9344 47.1903 48.924 48.0484 47.7709 47.9559ZM35.9634 43.2095C36.0178 42.0081 36.2562 40.8221 36.6704 39.693C36.8964 40.8742 36.9397 42.0832 36.7989 43.2776C36.7445 44.4791 36.506 45.665 36.0919 46.7942C35.8659 45.6129 35.8226 44.404 35.9634 43.2095ZM36.9311 46.9344C37.3226 45.7744 37.559 44.5676 37.6343 43.3457C37.7578 42.1274 37.7198 40.8982 37.5213 39.6899C40.1453 40.2727 42.7993 40.7112 45.4713 41.0033C45.6431 41.9902 45.6766 42.9961 45.5709 43.9922C45.566 44.0528 45.5613 44.1105 45.5541 44.1683C44.985 44.9594 44.8508 45.9832 45.1966 46.8943L45.1746 46.937C42.429 46.781 39.6768 46.7801 36.9311 46.9344ZM46.0319 50.7577L45.7841 50.0311C45.7095 49.8129 45.4727 49.6959 45.2542 49.7692L44.5258 50.0227L45.6967 47.7541C46.0656 48.1944 46.5559 48.5166 47.1064 48.6805L46.0319 50.7577ZM49.961 50.1527C49.7572 50.0449 49.5046 50.122 49.3957 50.3253L49.03 50.9947L48.3091 48.7777C48.8794 48.7049 49.4157 48.4663 49.8514 48.0913L50.6383 50.5102L49.961 50.1527ZM58.5499 48.813C55.8997 48.1814 53.214 47.7098 50.5073 47.4009L50.4835 47.3267C51.099 46.2625 50.9811 44.9266 50.1888 43.9867C50.2561 43.1201 50.2264 42.2488 50.1002 41.3888C53.1178 41.5667 56.1435 41.5489 59.1589 41.3355C59.3259 41.6804 59.5275 43.0075 59.3557 45.1153C59.184 47.2231 58.7685 48.4995 58.5499 48.813Z" fill="#FFDFDF"/>
</svg>
