<svg width="64" height="64" viewBox="0 0 64 64" fill="none" xmlns="http://www.w3.org/2000/svg">
<path d="M58.3323 43.0007C51.4142 56.4128 36.2575 62.3602 24.4787 56.2849C12.6997 50.2095 8.75904 34.4117 15.6769 20.9996C22.5947 7.5875 37.7514 1.63996 49.5303 7.71539C61.3093 13.7908 65.2501 29.5886 58.3323 43.0007Z" fill="#FFF5F5"/>
<path d="M37.8886 17.0085L30.1866 18.091L29.9701 16.5505C29.7313 14.8514 28.1554 13.6638 26.4562 13.9026L17.2137 15.2016C15.5146 15.4404 14.3271 17.0163 14.5658 18.7154L14.7823 20.2558L7.08029 21.3382C5.38114 21.5771 4.19364 23.153 4.43243 24.8521L5.08191 29.4734C5.32071 31.1725 6.89656 32.36 8.59576 32.1212L20.9191 30.3893L20.8109 29.619C20.751 29.1933 21.0471 28.8004 21.4728 28.7406L26.0941 28.0911C26.5198 28.0312 26.9128 28.3274 26.9726 28.7531L27.0808 29.5233L39.4042 27.7914C41.1032 27.5526 42.2907 25.9767 42.0519 24.2775L41.4024 19.6563C41.1637 17.9572 39.5878 16.7697 37.8886 17.0085ZM27.1057 18.5239L17.8632 19.8229L17.6467 18.2824L26.8892 16.9835L27.1057 18.5239Z" fill="#FFDFDF"/>
<path d="M42.174 28.2496C41.8932 28.1564 41.5838 28.2306 41.3768 28.4391C40.8875 28.9305 40.2804 29.2391 39.62 29.3319L27.2968 31.0638L27.6215 33.3744C27.6814 33.8001 27.3853 34.1931 26.9595 34.2529L22.3383 34.9024C21.9126 34.9622 21.5196 34.6661 21.4598 34.2404L21.1351 31.9297L8.81181 33.6617C8.15138 33.7545 7.48279 33.6253 6.87693 33.2878C6.61959 33.143 6.30247 33.1568 6.05842 33.3254C5.81506 33.4923 5.68706 33.7825 5.72818 34.0752L7.24637 44.8776C7.48519 46.5767 9.06103 47.7643 10.7602 47.5255L41.5686 43.1957C43.2677 42.9569 44.4553 41.381 44.2164 39.6819L42.6983 28.8794C42.6571 28.5867 42.4541 28.343 42.174 28.2496Z" fill="#FFDFDF"/>
<path d="M48.5884 15.369C48.784 14.9727 49.3493 14.9727 49.5449 15.369L50.5907 17.4877C50.6683 17.6449 50.8183 17.754 50.9918 17.7794L53.3313 18.1213C53.7685 18.1852 53.9429 18.7227 53.6261 19.0311L51.9343 20.6791C51.8085 20.8016 51.7511 20.9782 51.7807 21.1513L52.1799 23.4789C52.2547 23.9146 51.7973 24.2469 51.4061 24.0411L49.3149 22.9414C49.1595 22.8596 48.9738 22.8596 48.8184 22.9414L46.7273 24.0411C46.336 24.2469 45.8787 23.9146 45.9534 23.4789L46.3526 21.1513C46.3822 20.9782 46.3248 20.8016 46.199 20.6791L44.507 19.0311C44.1904 18.7227 44.3647 18.1852 44.802 18.1213L47.1415 17.7794C47.315 17.754 47.465 17.6449 47.5426 17.4877L48.5884 15.369Z" fill="#FFDFDF"/>
<path d="M55.6618 26.5428C55.9274 26.1894 56.4826 26.2939 56.6021 26.7196L57.1376 28.6364C57.185 28.8053 57.312 28.9402 57.4778 28.9972L59.3616 29.6447C59.7797 29.7884 59.8517 30.3489 59.4837 30.5933L57.8261 31.6942C57.68 31.7914 57.5909 31.9543 57.5877 32.1299L57.5557 34.1189C57.5488 34.561 57.0378 34.8029 56.6917 34.5284L55.1317 33.2923C54.9941 33.1833 54.8112 33.149 54.6437 33.2005L52.7411 33.7853C52.3186 33.9152 51.9305 33.5042 52.0845 33.0898L52.7774 31.2251C52.8386 31.0604 52.8148 30.8763 52.7138 30.7326L51.5697 29.1047C51.3155 28.7432 51.5862 28.2471 52.0278 28.2652L54.0181 28.3464C54.193 28.3535 54.361 28.2741 54.4661 28.1339L55.6618 26.5428Z" fill="#FFDFDF"/>
<path d="M50.0021 38.4635C50.1804 38.2672 50.5064 38.3606 50.5538 38.6215L50.8072 40.0162C50.8261 40.1198 50.8946 40.2074 50.9904 40.2507L52.2835 40.8343C52.5252 40.9433 52.537 41.2822 52.3035 41.4078L51.0554 42.079C50.9626 42.1289 50.9003 42.2213 50.8888 42.326L50.7348 43.7346C50.706 43.9983 50.3872 44.1144 50.1956 43.9311L49.1709 42.9515C49.0947 42.8787 48.9876 42.848 48.8845 42.8695L47.4966 43.1586C47.237 43.2127 47.028 42.9455 47.1431 42.7065L47.7576 41.4298C47.8034 41.3348 47.7994 41.2235 47.747 41.1321L47.0431 39.902C46.9115 39.6719 47.1007 39.3906 47.3635 39.426L48.7695 39.615C48.8738 39.629 48.9783 39.5908 49.049 39.513L50.0021 38.4635Z" fill="#FFDFDF"/>
</svg>
