<svg width="80" height="80" viewBox="0 0 80 80" fill="none" xmlns="http://www.w3.org/2000/svg">
<g clip-path="url(#clip0_2505_39345)">
<g opacity="0.15">
<path d="M69.8627 28.0536L51.5726 52.1629L75.7996 70.2968C76.071 69.4396 76.1793 68.5189 76.0461 67.5707L70.8511 30.6062C70.7178 29.6578 70.3598 28.8028 69.8627 28.0536Z" fill="#0AB305"/>
<path d="M63.8244 25.3109L6.05029 33.4306C5.10194 33.5639 4.24688 33.9218 3.49766 34.419L34.4677 57.6341C37.2077 59.6989 41.1145 59.1499 43.1793 56.4098L66.5506 25.5574C65.6933 25.286 64.7727 25.1777 63.8244 25.3109Z" fill="#0AB305"/>
<path d="M1.00184 37.7311C0.730435 38.5883 0.622062 39.5089 0.755343 40.4573L5.95036 77.4217C6.08364 78.3701 6.44159 79.2253 6.93875 79.9744L25.2288 55.865L1.00184 37.7311Z" fill="#0AB305"/>
<path d="M49.0767 55.4748L46.4913 58.9058C43.0509 63.4714 36.5373 64.3868 31.9718 60.9464L28.5409 58.3609L10.2508 82.4703C11.108 82.7417 12.0286 82.8501 12.977 82.7168L70.7511 74.5971C71.6994 74.4639 72.5545 74.1059 73.3037 73.6088L49.0767 55.4748Z" fill="#0AB305"/>
</g>
</g>
<defs>
<clipPath id="clip0_2505_39345">
<rect width="80" height="80" fill="white"/>
</clipPath>
</defs>
</svg>
