<svg width="80" height="80" viewBox="0 0 80 80" fill="none" xmlns="http://www.w3.org/2000/svg">
<g clip-path="url(#clip0_1997_15405)">
<g opacity="0.15">
<path d="M50.0979 68.7729V81.8803C50.0979 82.7959 49.5101 83.607 48.6396 83.8953C48.422 83.9659 48.1988 83.9998 47.9783 83.9998C47.317 83.9998 46.6783 83.689 46.2714 83.1351L38.6042 72.7012L50.0979 68.7729Z" fill="#085BDD"/>
<path d="M7.89044 19.3931C8.54044 18.9324 9.39391 18.8703 10.1004 19.2405L73.6871 52.4469C74.4389 52.8397 74.8826 53.6423 74.8204 54.4873C74.7554 55.3351 74.193 56.0586 73.3932 56.3327L55.7161 62.3749L18.07 30.1859L47.2012 65.2829L17.5754 75.4087C17.355 75.4822 17.1232 75.5218 16.8915 75.5218C16.5071 75.5218 16.1256 75.4172 15.7893 75.2137C15.2524 74.8859 14.8878 74.3348 14.7945 73.7159L7.02283 21.4335C6.90697 20.6422 7.24045 19.8566 7.89044 19.3931Z" fill="#085BDD"/>
</g>
</g>
<defs>
<clipPath id="clip0_1997_15405">
<rect width="80" height="80" fill="white"/>
</clipPath>
</defs>
</svg>
