<svg width="80" height="80" viewBox="0 0 80 80" fill="none" xmlns="http://www.w3.org/2000/svg">
  <circle cx="40" cy="36" r="36" fill="#F0F0F0"/>
  <path d="M50.0801 17.9609L47.0401 11.8809L44.6401 17.8009L47.0401 24.6809L50.0801 20.2009C50.4001 19.5609 50.4001 18.7609 50.0801 17.9609Z" fill="#FFCC66"/>
  <path d="M64.96 32.3613H15.04C12.8 32.3613 11.04 34.1213 11.04 36.3613V70.6013C11.04 72.8413 12.8 74.6013 15.04 74.6013H65.12C67.36 74.6013 69.12 72.8413 69.12 70.6013V36.3613C69.12 34.1213 67.2 32.3613 64.96 32.3613Z" fill="#666666"/>
  <path d="M69.12 39.5601V73.8001C69.12 76.0401 67.36 77.8001 65.12 77.8001H15.04C12.8 77.8001 11.04 76.0401 11.04 73.8001V39.5601C11.04 37.3201 12.8 35.5601 15.04 35.5601H65.12C67.2 35.4001 69.12 37.3201 69.12 39.5601Z" fill="#666666"/>
  <path d="M64.96 35.4004H15.04C12.8 35.4004 11.04 37.1604 11.04 39.4004V53.6404C11.04 56.0404 12.96 58.1204 15.52 58.1204H64.8C67.2 58.1204 69.28 56.2004 69.28 53.6404V39.4004C69.12 37.3204 67.2 35.4004 64.96 35.4004Z" fill="#7C7C7C"/>
  <path d="M50.3998 34.9209C49.5998 34.9209 48.9598 34.2809 48.9598 33.4809V27.4009C48.9598 27.0809 48.6398 26.7609 48.3198 26.7609H31.8398C31.5198 26.7609 31.1998 27.0809 31.1998 27.4009V33.4809C31.1998 34.2809 30.5598 34.9209 29.7598 34.9209C28.9598 34.9209 28.3198 34.2809 28.3198 33.4809V27.4009C28.3198 25.4809 29.9198 23.8809 31.8398 23.8809H48.3198C50.2398 23.8809 51.8398 25.4809 51.8398 27.4009V33.4809C51.8398 34.2809 51.1998 34.9209 50.3998 34.9209Z" fill="#4F4D4D"/>
  <path d="M45.44 6.91992H35.04C32 16.9999 33.12 11.3999 32.96 20.1999V26.7599C32.96 27.7199 33.76 28.5199 34.72 28.5199C35.68 28.5199 36.48 27.7199 36.48 26.7599C36.48 27.7199 37.28 28.5199 38.24 28.5199C39.2 28.5199 40 27.7199 40 26.7599C40 27.7199 40.8 28.5199 41.76 28.5199C42.72 28.5199 43.52 27.7199 43.52 26.7599C43.52 27.7199 44.32 28.5199 45.28 28.5199C46.24 28.5199 47.04 27.7199 47.04 26.7599V20.1999C46.72 9.15992 48.16 15.2399 45.44 6.91992Z" fill="#FFCC66"/>
  <path d="M46.8799 17.8008L47.1999 24.0408L47.5199 19.4008L46.8799 17.8008Z" fill="#E7B95D"/>
  <path d="M32.96 8.67969V10.4397C32.96 10.7597 33.12 10.9197 33.44 10.9197C52 10.5997 46.08 11.8797 47.36 8.67969H32.96Z" fill="#E6E6E6"/>
  <path d="M31.8398 1V9C31.8398 9.48 32.1598 9.8 32.6398 9.8C45.9198 9.48 47.9998 10.6 47.9998 9V1C47.9998 1 43.0994 0 39.9198 0C36.7403 0 31.8398 1 31.8398 1Z" fill="#4F4D4D"/>
  <path d="M29.2967 54.3112C28.9604 54.3112 28.637 54.1819 28.3783 53.9361C27.8739 53.4317 27.8739 52.6168 28.3783 52.1124L33.1124 47.3783C33.6168 46.8739 34.4317 46.8739 34.9361 47.3783C35.4406 47.8828 35.4406 48.6977 34.9361 49.2021L30.2021 53.9361C29.9434 54.1948 29.62 54.3112 29.2837 54.3112H29.2967Z" fill="white"/>
  <path d="M34.0307 54.3112C33.6944 54.3112 33.3711 54.1819 33.1124 53.9361L28.3783 49.2021C27.8739 48.6977 27.8739 47.8828 28.3783 47.3783C28.8828 46.8739 29.6977 46.8739 30.2021 47.3783L34.9361 52.1124C35.4406 52.6168 35.4406 53.4317 34.9361 53.9361C34.6774 54.1948 34.3541 54.3112 34.0178 54.3112H34.0307Z" fill="white"/>
  <path d="M46.6712 54.3112C46.3349 54.3112 46.0115 54.1819 45.7528 53.9361C45.2484 53.4317 45.2484 52.6168 45.7528 52.1124L50.4869 47.3783C50.9913 46.8739 51.8062 46.8739 52.3106 47.3783C52.8151 47.8828 52.8151 48.6977 52.3106 49.2021L47.5766 53.9361C47.3179 54.1948 46.9946 54.3112 46.6583 54.3112H46.6712Z" fill="white"/>
  <path d="M51.4052 54.3112C51.0689 54.3112 50.7456 54.1819 50.4869 53.9361L45.7528 49.2021C45.2484 48.6977 45.2484 47.8828 45.7528 47.3783C46.2573 46.8739 47.0722 46.8739 47.5766 47.3783L52.3106 52.1124C52.8151 52.6168 52.8151 53.4317 52.3106 53.9361C52.052 54.1948 51.7286 54.3112 51.3923 54.3112H51.4052Z" fill="white"/>
  <path d="M48.7196 70C48.254 70 47.8142 69.7543 47.5814 69.3145C46.1586 66.6371 43.3906 64.9814 40.3639 64.9814C37.3373 64.9814 34.5693 66.6371 33.1465 69.3145C32.8102 69.9483 32.0212 70.1811 31.4003 69.8448C30.7665 69.5085 30.5337 68.7195 30.87 68.0987C32.7455 64.5805 36.3801 62.3945 40.3769 62.3945C44.3736 62.3945 48.0082 64.5805 49.8837 68.0987C50.22 68.7324 49.9872 69.5085 49.3534 69.8448C49.1594 69.9483 48.9525 70 48.7455 70H48.7196Z" fill="white"/>
</svg>