<svg width="80" height="80" viewBox="0 0 80 80" fill="none" xmlns="http://www.w3.org/2000/svg">
<g clip-path="url(#clip0_1997_15412)">
<g opacity="0.8">
<path d="M6.63242 76.9593L16.717 96.1629L22.9423 91.4762L12.8578 72.2728L6.63242 76.9593Z" fill="#FFDFDF"/>
<path d="M73.9979 59.104C70.1745 58.1647 66.1118 58.8938 62.8517 61.1037L50.5933 70.0854L50.5315 70.1503C50.5236 70.1587 50.5152 70.1665 50.5071 70.1746L50.5082 70.1847L50.4957 70.186C49.6296 71.0769 48.5091 71.635 47.3345 71.758L36.9629 72.8434L36.6104 69.475L45.4904 68.5457C47.1448 68.3725 48.3454 66.8911 48.1722 65.2369C47.9999 63.5905 46.5314 62.3919 44.8841 62.5528L34.7954 63.5382C34.5888 63.5576 34.3825 63.539 34.1827 63.4832C29.9835 62.311 26.4915 62.6097 23.8038 64.3712C20.8017 66.3388 19.1195 69.8561 18.3516 73.2643L25.3083 86.5115L46.0705 84.3387L74.605 61.9377C75.9292 60.6758 74.6156 59.2561 73.9979 59.104Z" fill="#FFDFDF"/>
</g>
<path opacity="0.8" d="M42.0569 19.7112C31.7733 -3.88912 -8.1157 24.4429 41.89 57.25L41.8641 57.13C94.2932 24.3227 50.6372 -3.14556 42.0569 19.7112Z" fill="#FFDFDF"/>
</g>
<defs>
<clipPath id="clip0_1997_15412">
<path d="M0 0H80V76C80 78.2091 78.2091 80 76 80H0V0Z" fill="white"/>
</clipPath>
</defs>
</svg>
